# xmcd
#
# Track frame offsets: 
#        150
#        15127
#        30320
#        47102
#        61780
#        80637
#        96470
#        107477
#        124035
#        137702
#        150507
#        163067
#
# Disc length: 2382 seconds
#
# Revision: 0
# Processed by: cddbd v1.4PL0 Copyright (c) Steve Scherf et al.
# Submitted via: ExactAudioCopy v0.90b3
#
DISCID=8a094c0c
DTITLE=Confederate Railroad - The Essentials
DYEAR=1900
DGENRE=Country
TTITLE0=Queen Of Memphis
TTITLE1=Jesus And Mama
TTITLE2=Daddy Never Was The Cadillac Kind
TTITLE3=Trashy Women
TTITLE4=When You Leave That Way You Can Never Go Back
TTITLE5=Elvis And Andy
TTITLE6=When And Where
TTITLE7=Bill's Laundromat, Bar And Grill
TTITLE8=Summer In Dixie
TTITLE9=See Ya
TTITLE10=She Took It Like A Man
TTITLE11=Move Over Madonna
EXTD=
EXTT0=
EXTT1=
EXTT2=
EXTT3=
EXTT4=
EXTT5=
EXTT6=
EXTT7=
EXTT8=
EXTT9=
EXTT10=
EXTT11=
PLAYORDER=
